# xmcd
# 
# Track frame offsets:
#     183
#     12680
#     27360
#     42845
#     56628
#     70580
#     86210
#     101978
#     116100
#     131018
#     144783
#     159348
#     173043
#     189885
#     204303
#     217983
#     246943
#     260135
# 
# Disc length: 3656
# 
# Revision: 3
# Processed by: cddbd v1.5.2PL0 Copyright (c) Steve Scherf et al.
# Submitted via: fre:ac v1.0.27
# 
DISCID=030e4612
DTITLE=Bessie Smith - Bessie Smith
DYEAR=1991
DGENRE=Jazz
TTITLE0=Graveyard Dream Blues
TTITLE1=Jail House Blues
TTITLE2=Down Hearted Blues
TTITLE3=Gulf Coast Blues
TTITLE4=Lady Luck Blues
TTITLE5=Cemetery Blues
TTITLE6=Haunted House Blues
TTITLE7=Easy Come, Easy Go Blues
TTITLE8=Follow The Deal On Down
TTITLE9=Reckless Blues
TTITLE10=Cold In Hand Blues
TTITLE11=The Yellow Dog Blues
TTITLE12=Nashville Woman's Blues
TTITLE13=Mean Old Bedbug Blues
TTITLE14=Sweet Mistreater
TTITLE15=Empty Bed Blues
TTITLE16=Blue Spirit Blues
TTITLE17=Black Mountain Blues
EXTD=YEAR: 1991
EXTT0=
EXTT1=
EXTT2=
EXTT3=
EXTT4=
EXTT5=
EXTT6=
EXTT7=
EXTT8=
EXTT9=
EXTT10=
EXTT11=
EXTT12=
EXTT13=
EXTT14=
EXTT15=
EXTT16=
EXTT17=
PLAYORDER=
